<?xml version="1.0" encoding="UTF-8" standalone="no"?>
<svg
   height="16"
   viewBox="0 0 16 16"
   width="16"
   version="1.1"
   id="svg4"
   sodipodi:docname="AdventureCharacter2D.svg"
   inkscape:version="1.2.1 (9c6d41e410, 2022-07-14)"
   xmlns:inkscape="http://www.inkscape.org/namespaces/inkscape"
   xmlns:sodipodi="http://sodipodi.sourceforge.net/DTD/sodipodi-0.dtd"
   xmlns="http://www.w3.org/2000/svg"
   xmlns:svg="http://www.w3.org/2000/svg">
  <defs
     id="defs8" />
  <sodipodi:namedview
     id="namedview6"
     pagecolor="#ffffff"
     bordercolor="#000000"
     borderopacity="0.25"
     inkscape:showpageshadow="2"
     inkscape:pageopacity="0.0"
     inkscape:pagecheckerboard="0"
     inkscape:deskcolor="#d1d1d1"
     showgrid="false"
     inkscape:zoom="50"
     inkscape:cx="5.14"
     inkscape:cy="7.96"
     inkscape:window-width="1920"
     inkscape:window-height="1018"
     inkscape:window-x="0"
     inkscape:window-y="34"
     inkscape:window-maximized="1"
     inkscape:current-layer="svg4" />
  <path
     d="m 6.4921015,1 c -0.554011,0 -1.000001,0.446 -1.000001,1 v 3 c 0,0.554 0.44599,1 1.000001,1 h 1 v 0.9902 c -0.1081291,0.00342 -0.2149875,0.024356 -0.31641,0.062 L 5.1248901,7.7358 4.9797718,7.5487964 c -0.1358547,-0.42855 -0.5409677,-0.7137815 -0.99023,-0.6972 -0.6724249,0.024459 -1.1293238,0.692602 -0.9082,1.3281 L 3.5428701,9.3159 c 0.1745419,0.524403 0.7413525,0.807808 1.2656,0.6328 L 6.4920715,9.3882 v 0.6113 c 0,0.041 0.018715,0.076 0.023437,0.1152 l -4.5781014,3.0528 c -1.14085773,0.733157 -0.00611,2.435178 1.1094,1.664 l 5.0566014,-3.3711 1.4941,2.9864 c 0.2224569,0.445363 0.7386065,0.659299 1.2108995,0.5019 l 3,-1 c 1.316178,-0.395476 0.657129,-2.370613 -0.63281,-1.8965 l -2.1777,0.7246 -0.97461,-1.9511 c 0.2759,-0.1777 0.46875,-0.4723 0.46875,-0.8262 v -1 h 1.3828 l 0.72266,1.4473 c 0.595825,1.194452 2.384924,0.299852 1.789099,-0.8946 l -0.999999,-2 C 13.217147,7.2134328 12.870851,6.9994681 12.492068,6.9995 H 9.4920685 v -1 h 0.9999995 c 0.55401,0 1,-0.446 1,-1 v -3 c 0,-0.554 -0.44599,-1 -1,-1 z m 0,2 h 1 v 2 h -1 z"
     fill="#8da5f3"
     id="path2"
     sodipodi:nodetypes="csssccccccccccsccccccccccsccccccccsssccccccc" />
  <path
     d="m 1.2856244,1.7050409 c -0.2299461,-2e-7 -0.41635626,0.1547067 -0.41635626,0.3455474 L 0.53010698,5.1264442 c -0.0209321,0.189796 0.18626447,0.3455473 0.41635625,0.3455473 0.10408807,0 0.24165977,0.039593 0.27126907,-0.02292 L 1.8606431,4.1702013 2.4522982,6.7597296 c 0.071213,0.122761 0.2191353,0.1955071 0.3780059,0.1955071 0.060259,0 0.120519,0 0.1807862,-0.036369 L 4.189055,6.4410118 c 0.2081788,-0.08184 0.3067886,-0.290987 0.1972223,-0.4592133 l -1.74035,-1.9436574 1.643983,0.1430305 c 0.087657,-0.02273 0.1698284,-0.054558 0.23557,-0.1182131 C 4.6733957,3.9174646 4.6514762,3.7037709 4.4597309,3.5719172 l -2.9001978,-1.7895791 -0.00546,0.00455 C 1.4828428,1.736863 1.3897086,1.7050341 1.2856192,1.7050341 m 2.3228257,0.5956145"
     style="fill:#a5b7f3;fill-opacity:1;stroke-width:0.499082"
     id="path3239" />
</svg>
