<?xml version="1.0" encoding="UTF-8" standalone="no"?>
<svg
   height="16"
   viewBox="0 0 16 16"
   width="16"
   version="1.1"
   id="svg15192"
   sodipodi:docname="Region2D.svg"
   inkscape:version="1.2.1 (9c6d41e410, 2022-07-14)"
   xmlns:inkscape="http://www.inkscape.org/namespaces/inkscape"
   xmlns:sodipodi="http://sodipodi.sourceforge.net/DTD/sodipodi-0.dtd"
   xmlns="http://www.w3.org/2000/svg"
   xmlns:svg="http://www.w3.org/2000/svg">
  <defs
     id="defs15196" />
  <sodipodi:namedview
     id="namedview15194"
     pagecolor="#505050"
     bordercolor="#eeeeee"
     borderopacity="1"
     inkscape:pageshadow="0"
     inkscape:pageopacity="0"
     inkscape:pagecheckerboard="0"
     showgrid="false"
     inkscape:zoom="56.391766"
     inkscape:cx="6.2420461"
     inkscape:cy="9.9837271"
     inkscape:window-width="1920"
     inkscape:window-height="1018"
     inkscape:window-x="0"
     inkscape:window-y="34"
     inkscape:window-maximized="1"
     inkscape:current-layer="svg15192"
     inkscape:showpageshadow="2"
     inkscape:deskcolor="#505050" />
  <path
     d="m 14.202219,13.507922 h -12 V 1.5079228 h 12 L 8.2022191,7.5079229 Z"
     fill="#a5b7f3"
     stroke="#a5b7f3"
     stroke-linejoin="round"
     stroke-width="2"
     id="path15024"
     style="fill:#000000;fill-opacity:0;stroke:#a5b8f3;stroke-opacity:0.63459557" />
  <path
     d="m 7.4350831,6.1965874 c -0.3159023,-2e-7 -0.5719919,0.2111978 -0.571992,0.471724 L 6.3971483,10.867316 c -0.028751,0.2591 0.255891,0.471724 0.571992,0.471724 0.142998,0 0.3319941,0.05405 0.3726718,-0.03129 L 8.2250463,9.5619005 9.0378657,13.096995 c 0.09784,0.167587 0.30105,0.266897 0.519308,0.266897 0.08279,0 0.165577,0 0.248365,-0.04965 l 1.6182953,-0.652344 c 0.285996,-0.111724 0.421468,-0.397241 0.270944,-0.626895 L 9.3038754,9.3816191 11.562389,9.5768772 c 0.120419,-0.03103 0.233312,-0.07448 0.323627,-0.161379 0.203207,-0.198621 0.173102,-0.490345 -0.09032,-0.670345 l -3.9843079,-2.4430438 -0.0075,0.0062 c -0.09786,-0.06828 -0.225807,-0.111732 -0.368805,-0.111732 m 3.1911109,0.813103 v -1.241369 h 3.763101 v 1.241379 H 10.626194 M 9.7456271,3.7572774 11.875543,2.0007257 12.936738,2.8758984 10.806823,4.6324494 9.7456271,3.7572774 M 6.8630911,0.80279447 h 1.505241 V 3.9062424 H 6.8630911 V 0.80279447 M 2.2946859,9.9021044 4.4246013,8.1455524 5.4857963,9.0207244 3.3558803,10.777277 2.2946859,9.9021044 m 0,-7.026206 1.0611944,-0.8751727 2.129916,1.7565517 -1.061195,0.875172 -2.1299154,-1.756551 m 2.3105444,4.133792 H 0.84212865 V 5.7683114 H 4.6052303 v 1.241379"
     id="path2"
     style="fill:#a5b7f3;fill-opacity:1;stroke-width:0.683479"
     sodipodi:nodetypes="ccsscccscccccccccccccccccccccccccccccccccccccccc" />
</svg>
